#!OML:ASF F:\VICON\USERDATA\INSTALL\rory3\rory3.ASF
:FULLY-SPECIFIED
:DEGREES
3301
root -2.97469 18.4195 2.90275 -3.78739 -14.448 -0.268275
lowerback 7.35495 1.58172 0.163806
upperback 1.6054 2.08107 -1.05907
thorax -2.41751 1.03154 -1.37614
lowerneck -6.81685 -1.77546 -6.53432
upperneck 3.22197 -2.24688 9.0613
head 2.24506 -0.933709 3.70934
rclavicle 1.40889e-014 7.15625e-015
rhumerus 28.7478 -49.2819 -58.7498
rradius 102.26
rwrist -47.1178
rhand -19.6914 5.32245
rfingers 7.12502
rthumb 6.63771 -24.5535
lclavicle 1.40889e-014 7.15625e-015
lhumerus -51.0475 19.256 37.7262
lradius 49.1146
lwrist 40.373
lhand -27.9561 17.8511
lfingers 7.12502
lthumb -1.34351 47.8267
rfemur -9.4603 15.2976 19.1407
rtibia 32.7285
rfoot -18.4311 -12.8616
rtoes -2.5322
lfemur -11.0054 10.9026 -14.1163
ltibia 42.5876
lfoot -19.6476 17.4889
ltoes -6.20403
3302
root -3.04013 18.4138 2.87406 -3.81482 -14.8757 -0.366086
lowerback 7.57085 1.65155 0.262758
upperback 1.67392 2.18136 -1.03025
thorax -2.46183 1.08064 -1.41704
lowerneck -6.59261 -1.90056 -6.57465
upperneck 3.18517 -2.4228 9.10478
head 2.21253 -1.02616 3.72282
rclavicle 1.48592e-014 1.43125e-014
rhumerus 30.1098 -48.8875 -60.254
rradius 102.968
rwrist -47.9142
rhand -19.9118 6.24905
rfingers 7.12502
rthumb 6.42498 -23.6335
lclavicle 1.48592e-014 1.43125e-014
lhumerus -51.2214 19.7246 37.5167
lradius 47.3707
lwrist 40.1492
lhand -28.1241 18.3338
lfingers 7.12502
lthumb -1.50579 48.3082
rfemur -9.66669 15.035 19.4412
rtibia 32.9513
rfoot -18.33 -12.2892
rtoes -2.73687
lfemur -12.0619 11.1252 -13.5717
ltibia 44.6249
lfoot -18.3912 17.407
ltoes -8.19122
3303
root -3.10585 18.407 2.83852 -3.73639 -15.2098 -0.481168
lowerback 7.75268 1.69663 0.375293
upperback 1.71092 2.24923 -1.03691
thorax -2.51831 1.11331 -1.49898
lowerneck -6.38586 -2.00474 -6.57304
upperneck 3.19039 -2.58201 9.26022
head 2.19534 -1.10585 3.76453
rclavicle 2.75317e-014 2.78299e-015
rhumerus 31.4218 -48.5705 -61.8331
rradius 103.689
rwrist -48.6269
rhand -19.8367 6.61288
rfingers 7.12502
rthumb 6.49747 -23.2675
lclavicle 2.75317e-014 2.78299e-015
lhumerus -51.3648 20.1891 37.2755
lradius 45.6767
lwrist 39.6651
lhand -27.8403 18.5972
lfingers 7.12502
lthumb -1.23169 48.5733
rfemur -10.0014 14.9433 19.7748
rtibia 33.1622
rfoot -18.2239 -11.996
rtoes -2.8723
lfemur -13.3606 11.1807 -13.0041
ltibia 46.7525
lfoot -16.7931 17.2947
ltoes -10.0803
3304
root -3.17083 18.3956 2.80484 -3.66364 -15.4467 -0.590629
lowerback 7.91213 1.71738 0.448418
upperback 1.76647 2.28262 -1.02226
thorax -2.5463 1.12931 -1.53255
lowerneck -6.31715 -2.11327 -6.62332
upperneck 3.32885 -2.74459 9.42043
head 2.24148 -1.18305 3.81532
rclavicle 4.8081e-014 -5.56597e-015
rhumerus 32.7673 -48.2603 -63.4539
rradius 104.383
rwrist -49.1655
rhand -19.4404 6.47772
rfingers 7.12502
rthumb 6.88006 -23.3905
lclavicle 4.8081e-014 -5.56597e-015
lhumerus -51.4627 20.6648 37.0581
lradius 43.9301
lwrist 38.9947
lhand -27.3718 18.4451
lfingers 7.12502
lthumb -0.779175 48.4234
rfemur -10.2814 14.9065 20.1088
rtibia 33.3677
rfoot -18.3832 -11.7002
rtoes -1.24175
lfemur -14.7746 11.0322 -12.4397
ltibia 48.9602
lfoot -14.9619 17.2411
ltoes -11.6128
3305
root -3.23564 18.3949 2.77376 -3.6329 -15.5747 -0.620981
lowerback 8.05774 1.70789 0.416739
upperback 1.86339 2.26731 -1.01024
thorax -2.52919 1.12208 -1.50391
lowerneck -6.44517 -2.23366 -6.61372
upperneck 3.57227 -2.91774 9.43617
head 2.34896 -1.2627 3.80993
rclavicle -4.67641e-014 2.06736e-014
rhumerus 33.9994 -47.8312 -64.9659
rradius 105.097
rwrist -49.3474
rhand -19.5244 6.31396
rfingers 7.12502
rthumb 6.79894 -23.5569
lclavicle -4.67641e-014 2.06736e-014
lhumerus -51.5111 21.2133 36.888
lradius 42.234
lwrist 38.345
lhand -27.0956 18.378
lfingers 7.12502
lthumb -0.512455 48.3572
rfemur -10.4487 14.8691 20.3598
rtibia 33.5304
rfoot -18.8494 -11.2978
rtoes 1.93705
lfemur -16.2311 10.6762 -11.9603
ltibia 51.1695
lfoot -13.0028 17.1726
ltoes -12.2534
